<svg version="1.1" id="Layer_1" xmlns="http://www.w3.org/2000/svg" xmlns:xlink="http://www.w3.org/1999/xlink" x="0px" y="0px"
	 width="100%" viewBox="0 0 538 549" enable-background="new 0 0 538 549" xml:space="preserve">
<path fill="#FFFFFF" opacity="1.000000" stroke="none" 
	d="
M345.000000,550.000000 
	C231.525970,550.000000 118.551926,549.981201 5.577993,550.085327 
	C1.975468,550.088623 0.891710,549.507812 0.894363,545.579895 
	C1.016040,365.454712 1.015277,185.329437 0.894008,5.204280 
	C0.891497,1.475514 1.810384,0.911234 5.293886,0.913184 
	C181.753265,1.011951 358.212677,1.010466 534.672058,0.921805 
	C538.057068,0.920105 539.115967,1.344288 539.113220,5.170268 
	C538.983337,185.462051 538.986389,365.753967 539.099915,546.045776 
	C539.102112,549.560242 538.282043,550.096313 534.955811,550.089905 
	C471.804047,549.968018 408.652008,550.000000 345.000000,550.000000 
z"/>
<path fill="#4084F3" opacity="1.000000" stroke="none" 
	d="
M254.969162,114.825836 
	C257.940582,106.083260 264.383881,100.109711 269.425903,93.204147 
	C271.732544,90.044937 273.073059,92.870041 274.319641,94.341370 
	C283.795837,105.525871 293.211823,116.761444 302.632385,127.993027 
	C327.895447,158.112778 353.080414,188.298706 378.504364,218.282013 
	C381.519653,221.838028 381.226379,223.514603 377.812988,226.358383 
	C368.184509,234.380112 368.203796,234.622025 360.230774,225.160736 
	C335.326599,195.607971 310.511536,165.980133 285.657410,136.385193 
	C285.044250,135.655090 284.378387,134.969284 282.834900,134.608261 
	C283.869873,140.712738 284.868744,146.823578 285.945251,152.920700 
	C302.160004,244.758347 318.245941,336.619263 334.810333,428.393829 
	C336.577759,438.186340 330.207092,443.719360 326.753662,450.885071 
	C325.644257,453.187012 323.765442,451.071228 322.530182,450.361206 
	C300.143250,437.493469 277.803406,424.543854 255.443405,411.629272 
	C224.858047,393.963898 194.293594,376.261902 163.647522,358.702423 
	C157.957535,355.442261 152.063553,352.492950 146.267899,349.456665 
	C142.185425,347.317871 142.182480,345.937073 143.889709,342.459137 
	C159.086655,311.500458 174.159088,280.480652 189.278107,249.483673 
	C211.117630,204.708344 232.965469,159.937042 254.969162,114.825836 
z"/>
<path fill="#FDFEFF" opacity="1.000000" stroke="none" 
	d="
M249.904205,268.054871 
	C262.779327,275.469635 275.316803,282.739624 287.928741,289.878082 
	C290.717041,291.456268 292.371857,293.346954 292.949341,296.684479 
	C300.016357,337.528168 307.223694,378.347534 314.387085,419.174561 
	C314.641357,420.623932 314.817230,422.087036 315.060455,423.754974 
	C312.760101,424.291901 311.391144,422.861633 309.945923,422.028076 
	C263.335205,395.145172 216.773621,368.176880 170.107925,341.389893 
	C166.568314,339.358063 166.488312,337.646606 168.106735,334.357727 
	C181.933914,306.259003 195.677902,278.118744 209.274200,249.907745 
	C210.918137,246.496719 212.204926,246.090988 215.450073,248.042633 
	C226.726074,254.824066 238.196747,261.281830 249.904205,268.054871 
z"/>
<path fill="#FBFDFE" opacity="1.000000" stroke="none" 
	d="
M284.862671,251.164490 
	C285.812286,256.960846 286.705017,262.328247 287.795685,268.885956 
	C280.716858,264.814392 274.581818,261.293488 268.454224,257.759674 
	C253.320206,249.031815 238.203125,240.274384 223.042633,231.592712 
	C220.826447,230.323608 219.251007,229.384476 220.776840,226.285370 
	C235.034134,197.327499 249.155014,168.302475 263.327026,139.302582 
	C263.465210,139.019791 263.761139,138.814102 264.741577,137.748291 
	C271.508545,175.855072 278.157135,213.295303 284.862671,251.164490 
z"/>
</svg>